<svg width="53" height="53" viewBox="0 0 53 53" fill="none" xmlns="http://www.w3.org/2000/svg">
<path d="M12.8614 8.02067L26.5001 21.6593L40.0681 8.09133C40.3678 7.77233 40.7288 7.51715 41.1295 7.34107C41.5303 7.165 41.9624 7.07166 42.4001 7.06667C43.3372 7.06667 44.2359 7.43893 44.8985 8.10155C45.5611 8.76418 45.9334 9.6629 45.9334 10.6C45.9416 11.0332 45.8613 11.4635 45.6972 11.8645C45.5332 12.2655 45.2889 12.6288 44.9794 12.932L31.2347 26.5L44.9794 40.2447C45.5618 40.8144 45.9032 41.5859 45.9334 42.4C45.9334 43.3371 45.5611 44.2358 44.8985 44.8984C44.2359 45.5611 43.3372 45.9333 42.4001 45.9333C41.9498 45.952 41.5005 45.8769 41.0808 45.7126C40.6611 45.5484 40.2801 45.2987 39.9621 44.9793L26.5001 31.3407L12.8967 44.944C12.5982 45.2524 12.2415 45.4985 11.8473 45.6683C11.4532 45.8382 11.0292 45.9282 10.6001 45.9333C9.66297 45.9333 8.76425 45.5611 8.10163 44.8984C7.439 44.2358 7.06674 43.3371 7.06674 42.4C7.0585 41.9668 7.13887 41.5365 7.30292 41.1355C7.46697 40.7345 7.71124 40.3712 8.02074 40.068L21.7654 26.5L8.02074 12.7553C7.43839 12.1856 7.09691 11.4141 7.06674 10.6C7.06674 9.6629 7.439 8.76418 8.10163 8.10155C8.76425 7.43893 9.66297 7.06667 10.6001 7.06667C11.4481 7.07727 12.2607 7.42 12.8614 8.02067Z" fill="white"/>
</svg>
