<svg width="141" height="141" viewBox="0 0 141 141" fill="none" xmlns="http://www.w3.org/2000/svg">
<path d="M52.875 67.5625C56.1197 67.5625 58.75 64.9322 58.75 61.6875C58.75 58.4428 56.1197 55.8125 52.875 55.8125C49.6303 55.8125 47 58.4428 47 61.6875C47 64.9322 49.6303 67.5625 52.875 67.5625Z" fill="#343434"/>
<path d="M88.125 67.5625C91.3697 67.5625 94 64.9322 94 61.6875C94 58.4428 91.3697 55.8125 88.125 55.8125C84.8803 55.8125 82.25 58.4428 82.25 61.6875C82.25 64.9322 84.8803 67.5625 88.125 67.5625Z" fill="#343434"/>
<path d="M33.9575 94H36.5425C39.0687 94 41.125 91.885 41.125 89.2413V82.25H99.875V89.2413C99.875 91.885 101.873 94 104.458 94H107.042C109.569 94 111.625 91.885 111.625 89.2413V51.0537L102.46 23.5C102.166 22.56 101.755 21.7962 101.344 21.15C101.226 21.0325 101.168 20.915 101.05 20.7387C98.8175 17.6837 95.645 17.625 95.645 17.625H45.355C45.355 17.625 42.1825 17.6837 39.95 20.7975C39.8325 20.915 39.7738 21.0325 39.6562 21.15C39.245 21.7962 38.8337 22.56 38.54 23.5L29.375 51.0537V89.2413C29.375 91.885 31.4313 94 33.9575 94ZM48.9387 29.375H92.0612L93.4125 33.4288L95.9388 41.125H45.0613L48.9387 29.375ZM41.125 52.9338V52.875H99.875V70.5H41.125V52.9338ZM23.5 99.9338V111.625H64.625V129.25H76.375V111.625H117.5V99.9338H23.5Z" fill="#343434"/>
</svg>
