<svg width="33" height="33" viewBox="0 0 33 33" fill="none" xmlns="http://www.w3.org/2000/svg">
<path d="M8.00802 4.9939L16.5 13.4859L24.948 5.0379C25.1346 4.83928 25.3594 4.68039 25.6089 4.57076C25.8584 4.46113 26.1275 4.40301 26.4 4.3999C26.9835 4.3999 27.5431 4.63169 27.9557 5.04427C28.3682 5.45685 28.6 6.01643 28.6 6.5999C28.6051 6.86963 28.5551 7.13755 28.453 7.38724C28.3508 7.63693 28.1987 7.86311 28.006 8.0519L19.448 16.4999L28.006 25.0579C28.3686 25.4126 28.5812 25.893 28.6 26.3999C28.6 26.9834 28.3682 27.543 27.9557 27.9555C27.5431 28.3681 26.9835 28.5999 26.4 28.5999C26.1196 28.6115 25.8399 28.5647 25.5786 28.4625C25.3172 28.3602 25.08 28.2047 24.882 28.0059L16.5 19.5139L8.03002 27.9839C7.84413 28.1759 7.62206 28.3292 7.37662 28.4349C7.13118 28.5406 6.86724 28.5967 6.60002 28.5999C6.01654 28.5999 5.45696 28.3681 5.04438 27.9555C4.6318 27.543 4.40002 26.9834 4.40002 26.3999C4.39489 26.1302 4.44493 25.8623 4.54708 25.6126C4.64922 25.3629 4.80131 25.1367 4.99402 24.9479L13.552 16.4999L4.99402 7.9419C4.63142 7.58717 4.4188 7.10681 4.40002 6.5999C4.40002 6.01643 4.6318 5.45685 5.04438 5.04427C5.45696 4.63169 6.01654 4.3999 6.60002 4.3999C7.12802 4.4065 7.63402 4.6199 8.00802 4.9939Z" fill="#343434"/>
</svg>
