<svg width="25" height="25" viewBox="0 0 25 25" fill="none" xmlns="http://www.w3.org/2000/svg">
<path d="M12.5 20.8333C12.2049 20.8333 11.9577 20.7333 11.7584 20.5333C11.5584 20.334 11.4584 20.0868 11.4584 19.7917V8.15104L6.38025 13.2292C6.17192 13.4375 5.92435 13.5417 5.63754 13.5417C5.35143 13.5417 5.10421 13.4375 4.89587 13.2292C4.68754 13.0208 4.58337 12.7778 4.58337 12.5C4.58337 12.2222 4.68754 11.9792 4.89587 11.7708L11.7709 4.89583C11.875 4.79167 11.9879 4.71771 12.1094 4.67396C12.2309 4.6309 12.3612 4.60938 12.5 4.60938C12.6389 4.60938 12.7737 4.6309 12.9042 4.67396C13.0341 4.71771 13.1424 4.79167 13.2292 4.89583L20.1042 11.7708C20.3125 11.9792 20.4167 12.2222 20.4167 12.5C20.4167 12.7778 20.3125 13.0208 20.1042 13.2292C19.8959 13.4375 19.6483 13.5417 19.3615 13.5417C19.0754 13.5417 18.8282 13.4375 18.6198 13.2292L13.5417 8.15104V19.7917C13.5417 20.0868 13.4421 20.334 13.2427 20.5333C13.0427 20.7333 12.7952 20.8333 12.5 20.8333Z" fill="#343434"/>
</svg>
