<svg width="35" height="35" viewBox="0 0 35 35" fill="none" xmlns="http://www.w3.org/2000/svg">
<path d="M29.0938 30.625C25.9583 30.625 22.9022 29.9323 19.9252 28.5469C16.9473 27.1615 14.3101 25.3142 12.0138 23.0052C9.71639 20.6962 7.86917 18.0527 6.47208 15.0748C5.07403 12.0978 4.375 9.04167 4.375 5.90625V5.14063C4.375 4.87326 4.39931 4.61806 4.44792 4.375H12.9792L14.3281 11.7031L10.1719 15.8958C11.1927 17.6458 12.4751 19.2865 14.019 20.8177C15.5619 22.349 17.2569 23.6736 19.1042 24.7917L23.3333 20.5625L30.625 22.0208V30.5521C30.3819 30.5764 30.1267 30.5949 29.8594 30.6075C29.592 30.6192 29.3368 30.625 29.0938 30.625Z" fill="white"/>
</svg>
