<svg width="35" height="35" viewBox="0 0 35 35" fill="none" xmlns="http://www.w3.org/2000/svg">
<path d="M17.4854 2.91667C9.43538 2.91667 2.91663 9.45001 2.91663 17.5C2.91663 25.55 9.43538 32.0833 17.4854 32.0833C25.55 32.0833 32.0833 25.55 32.0833 17.5C32.0833 9.45001 25.55 2.91667 17.4854 2.91667ZM23.3333 23.3333C23.1984 23.4685 23.0381 23.5758 22.8617 23.649C22.6853 23.7222 22.4962 23.7598 22.3052 23.7598C22.1142 23.7598 21.9251 23.7222 21.7486 23.649C21.5722 23.5758 21.412 23.4685 21.277 23.3333L16.4791 18.5354C16.3413 18.4004 16.2317 18.2393 16.1566 18.0616C16.0815 17.8838 16.0424 17.693 16.0416 17.5V11.6667C16.0416 10.8646 16.6979 10.2083 17.5 10.2083C18.302 10.2083 18.9583 10.8646 18.9583 11.6667V16.9021L23.3333 21.2771C23.902 21.8458 23.902 22.7646 23.3333 23.3333Z" fill="white"/>
</svg>
