<svg width="30" height="30" viewBox="0 0 30 30" fill="none" xmlns="http://www.w3.org/2000/svg">
<path d="M15.2056 14.2158C14.3489 14.2158 13.5273 13.8737 12.9215 13.2648C12.3158 12.6559 11.9754 11.83 11.9754 10.9689C11.9754 10.1078 12.3158 9.28191 12.9215 8.673C13.5273 8.06409 14.3489 7.72201 15.2056 7.72201C16.0623 7.72201 16.8839 8.06409 17.4896 8.673C18.0954 9.28191 18.4357 10.1078 18.4357 10.9689C18.4357 11.3953 18.3522 11.8175 18.1898 12.2114C18.0275 12.6054 17.7896 12.9633 17.4896 13.2648C17.1897 13.5663 16.8336 13.8055 16.4417 13.9686C16.0498 14.1318 15.6298 14.2158 15.2056 14.2158M15.2056 1.87762C12.8069 1.87762 10.5064 2.83545 8.81023 4.5404C7.11408 6.24534 6.16119 8.55774 6.16119 10.9689C6.16119 17.7873 15.2056 27.8527 15.2056 27.8527C15.2056 27.8527 24.25 17.7873 24.25 10.9689C24.25 8.55774 23.2971 6.24534 21.6009 4.5404C19.9048 2.83545 17.6043 1.87762 15.2056 1.87762V1.87762Z" fill="#CF9A11"/>
</svg>
