<svg width="30" height="30" viewBox="0 0 30 30" fill="none" xmlns="http://www.w3.org/2000/svg">
<path d="M7.45001 5.15584C7.45001 4.31886 7.77662 3.51616 8.35798 2.92433C8.93934 2.33249 9.72784 2 10.55 2H19.85C20.6722 2 21.4607 2.33249 22.042 2.92433C22.6234 3.51616 22.95 4.31886 22.95 5.15584V24.0909C22.95 24.9279 22.6234 25.7306 22.042 26.3224C21.4607 26.9143 20.6722 27.2468 19.85 27.2468H10.55C9.72784 27.2468 8.93934 26.9143 8.35798 26.3224C7.77662 25.7306 7.45001 24.9279 7.45001 24.0909V5.15584ZM16.75 22.513C16.75 22.0945 16.5867 21.6931 16.296 21.3972C16.0053 21.1013 15.6111 20.9351 15.2 20.9351C14.7889 20.9351 14.3947 21.1013 14.104 21.3972C13.8133 21.6931 13.65 22.0945 13.65 22.513C13.65 22.9315 13.8133 23.3328 14.104 23.6287C14.3947 23.9247 14.7889 24.0909 15.2 24.0909C15.6111 24.0909 16.0053 23.9247 16.296 23.6287C16.5867 23.3328 16.75 22.9315 16.75 22.513Z" fill="#CF9A11"/>
</svg>
