<svg width="30" height="30" viewBox="0 0 30 30" fill="none" xmlns="http://www.w3.org/2000/svg">
<path d="M3.75 15H15V16.875H3.75V15ZM1.875 10.3125H11.25V12.1875H1.875V10.3125Z" fill="#CF9A11"/>
<path d="M28.0491 15.5681L25.2366 9.00563C25.1644 8.83695 25.0443 8.69319 24.8911 8.59219C24.7379 8.49119 24.5585 8.4374 24.375 8.4375H21.5625V6.5625C21.5625 6.31386 21.4637 6.0754 21.2879 5.89959C21.1121 5.72377 20.8736 5.625 20.625 5.625H5.62501V7.5H19.6875V19.2712C19.2603 19.5193 18.8865 19.8495 18.5875 20.2427C18.2885 20.636 18.0704 21.0845 17.9456 21.5625H12.0544C11.8262 20.6788 11.2835 19.9086 10.5281 19.3963C9.77271 18.884 8.8564 18.6649 7.95095 18.7799C7.0455 18.8949 6.21307 19.3362 5.60971 20.021C5.00634 20.7059 4.67346 21.5873 4.67346 22.5C4.67346 23.4127 5.00634 24.2941 5.60971 24.979C6.21307 25.6638 7.0455 26.1051 7.95095 26.2201C8.8564 26.3351 9.77271 26.116 10.5281 25.6037C11.2835 25.0914 11.8262 24.3212 12.0544 23.4375H17.9456C18.1496 24.2421 18.616 24.9557 19.271 25.4655C19.9261 25.9752 20.7325 26.252 21.5625 26.252C22.3926 26.252 23.1989 25.9752 23.854 25.4655C24.509 24.9557 24.9754 24.2421 25.1794 23.4375H27.1875C27.4361 23.4375 27.6746 23.3387 27.8504 23.1629C28.0262 22.9871 28.125 22.7486 28.125 22.5V15.9375C28.1251 15.8105 28.0992 15.6848 28.0491 15.5681ZM8.43751 24.375C8.06667 24.375 7.70416 24.265 7.39581 24.059C7.08747 23.853 6.84715 23.5601 6.70523 23.2175C6.56332 22.8749 6.52619 22.4979 6.59854 22.1342C6.67088 21.7705 6.84946 21.4364 7.11168 21.1742C7.37391 20.912 7.708 20.7334 8.07171 20.661C8.43543 20.5887 8.81243 20.6258 9.15504 20.7677C9.49765 20.9096 9.79049 21.15 9.99651 21.4583C10.2025 21.7666 10.3125 22.1292 10.3125 22.5C10.312 22.9971 10.1143 23.4738 9.76279 23.8253C9.41126 24.1768 8.93464 24.3745 8.43751 24.375ZM21.5625 10.3125H23.7563L25.7663 15H21.5625V10.3125ZM21.5625 24.375C21.1917 24.375 20.8292 24.265 20.5208 24.059C20.2125 23.853 19.9721 23.5601 19.8302 23.2175C19.6883 22.8749 19.6512 22.4979 19.7235 22.1342C19.7959 21.7705 19.9745 21.4364 20.2367 21.1742C20.4989 20.912 20.833 20.7334 21.1967 20.661C21.5604 20.5887 21.9374 20.6258 22.28 20.7677C22.6227 20.9096 22.9155 21.15 23.1215 21.4583C23.3275 21.7666 23.4375 22.1292 23.4375 22.5C23.437 22.9971 23.2393 23.4738 22.8878 23.8253C22.5363 24.1768 22.0596 24.3745 21.5625 24.375ZM26.25 21.5625H25.1794C24.9729 20.7595 24.5057 20.0477 23.8512 19.5387C23.1966 19.0297 22.3917 18.7523 21.5625 18.75V16.875H26.25V21.5625Z" fill="#CF9A11"/>
</svg>
