<svg width="18" height="18" viewBox="0 0 18 18" fill="none" xmlns="http://www.w3.org/2000/svg">
<path d="M15.8682 1.35011C16.3236 1.6052 16.6592 2.03074 16.8009 2.53316C16.9427 3.03558 16.8791 3.57374 16.6242 4.02929L10.1498 15.5909C9.98582 15.8838 9.7584 16.1363 9.48418 16.3299C9.20996 16.5235 8.8959 16.6533 8.56501 16.7098C8.23412 16.7662 7.89479 16.748 7.57189 16.6563C7.24898 16.5646 6.95069 16.4018 6.69885 16.1799L1.79217 11.8576C1.40041 11.5124 1.16183 11.0257 1.12892 10.5046C1.09601 9.98346 1.27145 9.47061 1.61667 9.07886C1.96188 8.6871 2.44858 8.44852 2.96969 8.41561C3.49081 8.3827 4.00366 8.55815 4.39542 8.90336L7.73442 11.8452L13.1884 2.10611C13.3147 1.8805 13.4842 1.68199 13.6873 1.5219C13.8903 1.36181 14.1229 1.24328 14.3717 1.17308C14.6206 1.10288 14.8808 1.08238 15.1375 1.11275C15.3943 1.14313 15.6426 1.22378 15.8682 1.35011V1.35011Z" fill="white"/>
</svg>
