<svg width="25" height="26" viewBox="0 0 25 26" fill="none" xmlns="http://www.w3.org/2000/svg">
<g clip-path="url(#clip0_43_177)">
<path d="M24.7715 24.1905L17.1804 16.5529C18.5953 14.8584 19.448 12.6783 19.448 10.2979C19.448 4.90449 15.0757 0.532227 9.68237 0.532227C4.28901 0.532227 -0.083252 4.90449 -0.083252 10.2979C-0.083252 15.6912 4.28901 20.0635 9.68237 20.0635C12.1328 20.0635 14.371 19.1588 16.0859 17.6674L23.6664 25.2955C23.9714 25.6006 24.4664 25.6006 24.7715 25.2955C25.0761 24.9904 25.0761 24.4959 24.7715 24.1905H24.7715ZM9.68237 18.5139C5.14487 18.5139 1.46636 14.8354 1.46636 10.2979C1.46636 5.76035 5.14487 2.08184 9.68237 2.08184C14.2199 2.08184 17.8984 5.76035 17.8984 10.2979C17.8984 14.8354 14.2199 18.5139 9.68237 18.5139Z" fill="#D2D2D2"/>
</g>
<defs>
<clipPath id="clip0_43_177">
<rect width="25" height="25" fill="white" transform="translate(0 0.532227)"/>
</clipPath>
</defs>
</svg>
